<?xml version="1.0" standalone="no"?>
<!DOCTYPE svg PUBLIC "-//W3C//DTD SVG 20010904//EN"
 "http://www.w3.org/TR/2001/REC-SVG-20010904/DTD/svg10.dtd">
<svg version="1.0" xmlns="http://www.w3.org/2000/svg"
 width="410.000000pt" height="410.000000pt" viewBox="0 0 410.000000 410.000000"
 preserveAspectRatio="xMidYMid meet">
<metadata>
Created by potrace 1.14, written by Peter Selinger 2001-2017
</metadata>
<g transform="translate(0.000000,410.000000) scale(0.100000,-0.100000)"
fill="#000000" stroke="none">
<path d="M1955 3978 c-44 -16 -101 -54 -133 -88 -45 -46 -92 -157 -92 -215 0
-61 41 -167 83 -216 32 -36 112 -89 136 -89 11 0 23 -4 26 -10 3 -5 39 -10 80
-10 41 0 77 5 80 10 3 6 15 10 26 10 24 0 106 54 134 89 65 79 95 184 76 264
-27 112 -86 190 -178 237 -55 28 -185 38 -238 18z"/>
<path d="M1485 3464 c-44 -26 -95 -55 -112 -65 -18 -11 -48 -27 -65 -38 -18
-10 -73 -42 -123 -71 -49 -29 -100 -58 -112 -64 -35 -17 -35 -34 -2 -82 16
-24 37 -60 45 -79 16 -40 30 -43 79 -15 19 11 51 29 70 40 39 22 89 51 126 72
13 7 26 15 29 18 3 3 19 12 35 20 17 8 32 17 35 20 3 3 19 12 35 20 17 8 32
17 35 20 6 6 46 29 83 48 41 20 42 35 10 84 -16 24 -37 60 -47 81 -9 20 -22
37 -29 37 -7 0 -48 -21 -92 -46z"/>
<path d="M2508 3488 c-7 -13 -20 -36 -28 -53 -8 -16 -23 -39 -32 -49 -34 -37
-25 -56 45 -95 20 -12 53 -30 72 -41 19 -11 51 -29 70 -40 19 -11 51 -29 70
-40 39 -22 89 -51 126 -72 13 -7 26 -15 29 -18 11 -11 93 -50 105 -50 7 0 25
26 41 58 15 31 36 66 46 76 26 28 22 40 -21 64 -89 51 -129 74 -246 142 -49
29 -115 66 -145 83 -30 17 -64 36 -75 44 -27 18 -41 16 -57 -9z"/>
<path d="M605 3183 c-109 -16 -223 -124 -250 -238 -15 -59 -3 -195 16 -195 5
0 9 -9 9 -20 0 -11 5 -20 10 -20 6 0 10 -6 10 -12 0 -35 93 -106 174 -133 103
-35 248 2 323 82 91 97 116 242 61 354 -33 66 -95 131 -152 158 -42 19 -148
32 -201 24z"/>
<path d="M3375 3181 c-94 -17 -174 -82 -223 -180 -38 -78 -38 -182 -1 -261 80
-171 285 -238 452 -149 33 18 107 91 107 105 0 8 5 14 10 14 6 0 10 9 10 20 0
11 5 20 10 20 6 0 10 15 10 34 0 19 5 38 10 41 6 3 10 24 10 45 0 21 -4 42
-10 45 -5 3 -10 19 -10 35 0 16 -9 46 -21 67 -26 48 -125 143 -148 143 -9 0
-21 4 -26 9 -14 13 -132 21 -180 12z"/>
<path d="M2030 3010 c0 -5 -9 -10 -19 -10 -11 0 -21 -3 -23 -7 -1 -5 -40 -27
-85 -50 -46 -24 -120 -62 -165 -85 -46 -24 -84 -46 -86 -50 -2 -5 -12 -8 -22
-8 -10 0 -20 -3 -22 -7 -1 -5 -39 -26 -83 -49 -129 -66 -199 -105 -209 -115
-13 -12 8 -27 129 -90 55 -29 116 -61 135 -72 19 -11 82 -44 140 -75 58 -30
154 -81 213 -114 59 -32 114 -58 122 -58 8 0 63 26 122 58 59 33 155 84 213
114 58 31 121 64 140 75 19 11 80 43 135 72 121 63 142 78 129 90 -10 10 -80
49 -209 115 -44 23 -81 44 -83 49 -2 4 -12 7 -22 7 -10 0 -20 3 -22 8 -1 4
-39 26 -83 48 -44 23 -118 61 -165 85 -47 24 -86 47 -88 52 -2 4 -12 7 -23 7
-10 0 -19 5 -19 10 0 6 -11 10 -25 10 -14 0 -25 -4 -25 -10z"/>
<path d="M1205 2448 c-3 -7 -4 -208 -3 -446 l3 -433 30 -17 c17 -9 32 -19 35
-22 3 -3 41 -24 85 -46 171 -88 210 -109 213 -116 2 -5 12 -8 23 -8 10 0 19
-4 19 -10 0 -5 9 -10 19 -10 11 0 21 -3 23 -7 3 -8 41 -29 173 -97 44 -22 83
-45 86 -49 4 -5 17 -7 30 -5 l24 3 3 415 c1 228 0 429 -3 445 -4 26 -17 36
-98 78 -50 26 -130 68 -177 93 -47 25 -143 76 -215 114 -71 37 -156 82 -189
99 -64 34 -74 37 -81 19z"/>
<path d="M2825 2431 c-27 -15 -108 -58 -180 -96 -135 -71 -209 -110 -385 -203
-58 -30 -108 -60 -112 -66 -4 -6 -7 -207 -5 -446 l2 -435 24 -3 c13 -2 26 0
30 5 3 5 38 24 76 43 39 19 72 37 75 40 3 3 28 16 55 30 28 14 52 28 53 33 2
4 12 7 22 7 10 0 20 3 22 8 3 6 31 22 251 134 45 24 84 45 87 48 3 3 19 13 35
22 l30 17 0 443 c0 386 -2 443 -15 445 -8 1 -37 -11 -65 -26z"/>
<path d="M564 2375 c-3 -6 -3 -147 -2 -314 l3 -304 100 0 100 1 0 312 0 312
-99 2 c-60 1 -100 -3 -102 -9z"/>
<path d="M3344 2375 c-3 -6 -3 -147 -2 -314 l3 -303 100 -1 100 -2 0 315 0
315 -99 0 c-57 0 -100 -4 -102 -10z"/>
<path d="M580 1578 c-14 -6 -40 -17 -59 -26 -41 -17 -121 -89 -121 -108 0 -8
-4 -14 -10 -14 -5 0 -10 -9 -10 -20 0 -11 -4 -20 -9 -20 -19 0 -31 -136 -16
-195 20 -84 93 -174 175 -215 64 -33 204 -34 270 -2 74 36 117 78 152 150 29
58 33 77 33 142 -1 141 -80 250 -218 301 -56 21 -147 24 -187 7z"/>
<path d="M3365 1580 c-3 -5 -15 -10 -26 -10 -24 0 -103 -52 -137 -89 -79 -86
-101 -235 -51 -341 32 -68 93 -130 156 -160 69 -34 198 -34 268 -1 85 39 160
129 180 216 14 57 3 179 -16 191 -5 3 -9 12 -9 19 0 8 -8 24 -17 36 -55 68
-77 89 -89 89 -8 0 -14 4 -14 9 0 5 -8 11 -17 14 -10 4 -36 13 -58 21 -45 18
-161 21 -170 6z"/>
<path d="M1116 1075 c-8 -19 -29 -55 -45 -79 -17 -25 -31 -49 -31 -54 0 -10
24 -28 84 -62 54 -30 89 -50 226 -131 69 -40 149 -85 179 -101 l54 -28 30 57
c16 32 38 69 48 82 26 32 24 45 -8 62 -16 8 -30 16 -33 19 -3 3 -16 11 -29 18
-97 55 -150 85 -201 116 -25 15 -53 29 -62 33 -10 3 -18 8 -18 12 0 4 -16 13
-35 21 -19 8 -35 17 -35 20 0 3 -16 12 -35 20 -19 8 -35 17 -35 22 0 4 -9 8
-20 8 -13 0 -25 -12 -34 -35z"/>
<path d="M2920 1090 c-14 -11 -31 -20 -37 -20 -7 0 -13 -4 -13 -8 0 -5 -16
-14 -35 -22 -19 -8 -35 -17 -35 -21 0 -4 -8 -9 -17 -12 -10 -4 -38 -18 -63
-33 -25 -15 -60 -35 -77 -45 -78 -44 -105 -60 -137 -78 -85 -48 -92 -60 -58
-97 9 -10 28 -41 42 -69 14 -27 29 -53 34 -57 12 -8 38 5 181 90 61 36 135 79
165 95 30 17 67 38 82 49 14 10 29 18 32 18 15 0 86 54 86 64 0 7 -8 21 -18
32 -9 10 -31 45 -47 76 -32 62 -46 68 -85 38z"/>
<path d="M1975 778 c-67 -23 -81 -31 -137 -78 -59 -49 -116 -186 -105 -251 18
-109 37 -150 96 -209 69 -68 127 -92 226 -92 99 0 157 24 226 92 59 59 78 100
96 209 10 63 -38 182 -98 241 -52 51 -59 55 -125 79 -64 22 -130 26 -179 9z"/>
</g>
</svg>
